<svg version="1.1" id="Layer_1" xmlns="http://www.w3.org/2000/svg" xmlns:xlink="http://www.w3.org/1999/xlink" x="0px" y="0px"
	 width="100%" viewBox="0 0 592 672" enable-background="new 0 0 592 672" xml:space="preserve">
<path fill="#000000" opacity="1.000000" stroke="none" 
	d="
M593.000000,18.000000 
	C593.000000,236.284668 593.000000,454.569336 593.000000,672.927002 
	C395.759338,672.927002 198.518661,672.927002 1.000000,672.927002 
	C1.000000,456.640930 1.000000,240.281708 1.276528,23.671257 
	C4.733315,25.150326 8.081716,26.531588 10.711229,29.228271 
	C15.015260,33.642246 20.376350,35.424755 26.554090,35.169743 
	C36.087730,34.776207 45.625343,35.484131 54.734856,38.210018 
	C62.473930,40.525822 69.742455,39.945789 77.261826,37.790726 
	C83.237198,36.078178 86.881767,32.407486 88.959473,26.613096 
	C92.926254,15.550357 86.742180,8.218883 80.000000,1.000000 
	C245.359177,1.000000 410.718353,1.000000 576.180359,1.128690 
	C567.742310,3.019375 567.742310,3.019375 568.994873,12.057333 
	C570.435486,22.452175 576.866333,25.379305 585.274475,19.290274 
	C587.780273,17.475578 590.084290,16.424534 593.000000,18.000000 
M459.540466,560.706787 
	C461.035828,559.390808 462.679169,558.208069 464.003113,556.737732 
	C474.651581,544.911560 480.639374,530.855835 483.577026,515.371338 
	C483.814636,514.118835 483.373322,512.066895 484.985657,512.054810 
	C488.049988,512.031799 488.133575,509.660522 488.327576,508.012695 
	C489.046967,501.902039 491.875946,496.611816 494.409058,491.218475 
	C495.396393,489.116272 496.241028,486.530609 499.681000,485.865936 
	C501.352631,498.300751 501.793610,510.939270 509.900696,521.273743 
	C509.540741,511.278503 508.707123,501.357788 510.652069,491.538177 
	C512.226440,483.589478 512.183533,474.981171 516.427124,467.987732 
	C522.130615,458.588287 522.470825,448.956177 520.756104,438.703156 
	C520.428406,436.743927 518.711914,434.733490 520.479553,432.484680 
	C520.899719,432.822784 521.346802,433.056122 521.617126,433.420563 
	C523.398682,435.822296 525.330994,438.140076 526.852234,440.700226 
	C528.949646,444.229980 530.352844,443.558960 532.658752,440.698334 
	C546.756775,423.209259 551.578552,402.738098 552.703552,380.891663 
	C553.155823,372.110962 550.470215,363.414825 552.572205,354.596741 
	C553.693787,349.891632 553.931824,343.215881 557.583618,341.590424 
	C563.438416,338.984344 561.442200,335.715790 560.939087,332.090912 
	C560.659546,330.076965 560.699036,328.175476 561.159180,326.175964 
	C562.910706,318.564972 560.032898,311.055389 560.493042,303.387085 
	C560.706421,299.830841 558.183594,296.179962 557.325928,292.473663 
	C556.035339,286.896362 552.078491,282.316162 550.897888,276.522888 
	C554.630371,276.281799 556.982300,280.030457 560.258362,278.321228 
	C560.898071,276.915039 560.500916,275.820343 560.211121,274.686584 
	C554.693970,253.104630 544.183167,234.359802 528.457947,218.545944 
	C525.440125,215.511139 521.829224,212.832489 521.375610,207.814026 
	C519.727295,209.026154 518.219727,208.891876 516.877075,207.755447 
	C513.070435,204.533386 511.987335,206.517929 511.104187,210.344467 
	C510.558044,212.710831 510.213379,215.621277 507.033386,217.012756 
	C505.904205,211.782425 507.641998,207.249924 509.083984,202.698807 
	C512.132263,193.078171 516.732117,183.879730 516.783997,173.457443 
	C516.816040,167.019791 516.611816,160.613922 514.757507,154.380127 
	C517.019104,153.694717 517.056152,156.061218 518.777405,156.491943 
	C516.748169,152.500900 516.062134,148.211685 512.112305,145.766907 
	C508.650452,147.995193 508.885315,152.770950 505.343781,155.101013 
	C503.723175,151.187836 505.562134,147.188065 503.689117,142.950150 
	C497.036530,148.771622 489.657501,152.258423 481.565765,154.379593 
	C475.197784,156.048904 469.523743,159.062286 465.000610,164.024887 
	C463.434723,165.742920 461.796783,167.471588 459.915100,168.804855 
	C457.881622,170.245651 455.986816,169.933411 455.730011,166.984070 
	C455.366486,162.809036 455.452118,159.000839 459.046814,155.615891 
	C464.344727,150.627167 469.055115,145.019592 473.683197,139.355499 
	C478.225159,133.796814 483.857452,129.729233 491.581024,129.155197 
	C491.542999,131.876526 487.143982,132.000702 489.352173,136.082855 
	C491.903442,130.239807 497.923706,129.613464 502.060486,126.221687 
	C498.049957,122.112747 494.518372,124.740402 490.622284,125.176300 
	C480.575928,126.300285 473.402588,131.365829 467.106354,138.637985 
	C463.489471,142.815582 460.712128,147.915298 455.442078,150.550049 
	C452.541412,145.579529 452.984650,138.657150 456.158020,134.693329 
	C457.640167,132.841949 457.951843,130.535126 458.590118,127.831955 
	C457.145630,128.564178 456.580353,129.943802 455.477509,129.653061 
	C451.295105,126.041328 450.460205,120.619057 446.290771,116.662186 
	C442.756409,113.307983 440.188141,112.856926 436.672394,113.545746 
	C425.536224,115.727631 415.027008,113.478752 405.298218,108.496277 
	C395.742584,103.602448 385.885468,99.978775 375.443665,97.826683 
	C367.388885,96.166565 359.629974,93.134026 351.231812,92.546455 
	C351.355377,90.836571 351.671478,89.036209 351.585327,87.255310 
	C350.749298,69.969765 353.206665,53.430176 362.402985,38.370605 
	C363.262115,36.963711 363.528198,35.513000 362.122681,34.308517 
	C356.000305,29.061928 349.582489,24.223492 342.921722,19.839302 
	C340.736420,21.941898 341.432678,24.067944 341.387207,25.971830 
	C340.807220,50.264889 342.315247,74.574448 340.551086,98.875160 
	C340.209167,103.584885 340.533112,108.241501 339.869690,113.092636 
	C338.915924,120.067131 337.658478,127.750275 342.114624,134.467468 
	C342.446198,134.967316 342.559906,135.819061 342.400879,136.405823 
	C340.100555,144.892639 341.661438,153.548660 341.515625,162.089417 
	C341.074646,187.913147 341.364441,213.749329 341.367859,239.580658 
	C341.369781,254.079529 340.823212,268.608734 341.627380,283.062866 
	C341.966095,289.151001 338.634033,293.810425 338.329590,299.571991 
	C338.905121,293.777069 336.361053,289.692291 330.759216,286.387329 
	C333.460602,286.025177 334.784424,287.201202 336.067749,286.097778 
	C336.997772,284.640686 336.607971,282.926514 336.608917,281.298279 
	C336.632416,239.968140 336.598083,198.637955 336.678864,157.307983 
	C336.685791,153.767273 335.540009,150.375656 336.432953,146.649689 
	C337.285187,143.093536 335.079529,138.985336 335.306976,135.831238 
	C335.561371,132.303848 337.395874,128.514221 337.733673,124.472305 
	C338.437592,116.049385 336.365753,107.853462 336.488678,99.456635 
	C336.849426,74.813202 336.641968,50.161240 336.605591,25.512690 
	C336.603027,23.780512 337.244110,21.802872 335.155457,20.127586 
	C328.853882,22.952515 323.994507,28.101217 318.203552,31.839470 
	C314.426392,34.277737 314.188660,36.564812 316.486237,40.397507 
	C326.134399,56.491966 327.404236,74.188690 326.010834,92.294601 
	C316.608826,93.513313 307.921722,96.398903 299.046478,98.455559 
	C290.967926,100.327583 283.252899,102.874741 275.759430,106.831581 
	C265.155426,112.430893 253.723358,115.966881 241.250381,113.460808 
	C233.449570,111.893456 233.396057,112.159790 230.793823,120.905457 
	C227.748337,118.211281 226.853439,120.288704 226.353073,122.927002 
	C225.643875,126.666321 225.017487,130.421326 224.352173,134.169006 
	C223.448044,139.261993 222.540604,144.354401 221.642990,149.399780 
	C219.692673,149.109970 219.176102,148.233902 218.784607,147.330460 
	C211.323425,130.112579 198.395157,117.046783 185.058609,104.614059 
	C171.157593,91.655136 158.128296,77.949448 145.828140,63.537643 
	C136.442352,52.540527 131.438416,39.380306 128.769501,25.280439 
	C128.491547,23.811989 128.392883,22.023977 126.519371,21.815615 
	C124.553482,21.596977 124.099014,23.484285 123.728935,24.817810 
	C120.729454,35.626091 119.447670,46.580715 120.933548,57.799110 
	C122.812164,71.982658 131.256714,82.492676 140.621033,92.234520 
	C155.053619,107.248962 170.037109,121.732140 184.656509,136.569153 
	C200.514771,152.663452 211.715164,171.310898 215.519287,193.941498 
	C215.821274,195.738007 215.838089,197.979691 218.807693,199.468872 
	C224.360825,188.109695 223.448151,175.883453 223.724915,163.121628 
	C225.768616,165.068161 225.303345,166.979782 227.014618,168.007278 
	C227.014618,168.007278 227.271957,168.205826 227.075241,168.835953 
	C227.349594,171.128708 227.543091,173.434555 227.911484,175.712112 
	C230.245865,190.144775 230.547256,204.399185 225.488480,218.467941 
	C218.348724,238.324158 205.504135,254.368713 191.476425,269.530579 
	C174.972214,287.369141 156.675262,303.343201 138.084198,318.957611 
	C125.370972,329.635284 112.602036,340.234009 100.441025,351.557739 
	C83.531944,367.302643 66.096985,382.557861 54.308891,402.870636 
	C45.699593,417.705811 39.950840,433.434845 39.337036,450.836334 
	C38.572971,472.497711 45.741806,491.939148 55.498676,510.714081 
	C56.056618,511.787720 56.362373,513.401794 58.371235,512.919739 
	C59.415436,511.039886 58.783012,509.003204 58.362293,507.188751 
	C55.051170,492.908722 57.447918,479.095673 62.295742,465.723450 
	C69.066963,447.045776 80.223236,430.873840 93.620773,416.433624 
	C108.783737,400.090515 125.052101,384.849426 143.088547,371.609467 
	C160.610718,358.746979 177.774307,345.437347 193.562057,330.443817 
	C194.397156,329.650726 195.238007,328.733795 196.745926,329.426056 
	C197.815598,331.747742 197.354828,333.802094 195.422821,335.617493 
	C188.518143,342.105438 181.853516,348.872406 174.662079,355.024170 
	C168.938416,359.920380 168.596283,360.330139 173.907349,365.702789 
	C184.786362,376.707916 195.147552,388.136353 203.498581,401.253571 
	C210.500732,412.252045 211.439987,422.185242 208.320297,431.505737 
	C206.109009,430.320923 207.121811,426.534363 204.145996,426.038361 
	C203.049423,426.337769 202.604675,426.964081 202.445129,427.859070 
	C201.489029,433.222870 198.989059,437.767151 195.582794,442.013519 
	C190.994980,447.732910 186.080948,453.115845 180.864090,458.253754 
	C176.804504,462.251862 173.490372,466.852448 171.313080,472.122620 
	C166.013290,484.951019 168.030365,497.839111 171.327881,510.694855 
	C171.630081,511.873108 172.159882,512.900574 173.991882,512.804871 
	C177.972916,508.189728 179.804642,501.605957 185.315735,497.450928 
	C187.261475,500.553162 187.830276,503.614929 188.665451,506.619965 
	C189.117752,508.247437 188.789612,510.729675 191.035233,511.194427 
	C193.376053,511.678894 193.113327,513.269897 193.453308,514.878540 
	C196.091537,527.362061 200.532455,539.124817 207.874725,549.650146 
	C212.018661,555.590637 216.404251,561.344055 223.010529,566.318176 
	C224.206070,559.059265 219.760727,552.748657 222.641815,545.654541 
	C229.910751,552.880127 235.531387,560.550049 240.376099,568.876770 
	C242.898361,573.211853 242.542587,577.279663 240.623734,581.692383 
	C238.330109,586.966980 234.292816,590.410828 228.429581,593.350281 
	C236.097977,597.686707 242.359833,595.058655 248.857559,592.480347 
	C251.406723,599.337219 251.583191,607.468750 259.556427,610.991821 
	C261.491943,608.448730 259.764679,605.457153 261.727234,602.781128 
	C263.671478,608.262878 265.136444,613.514893 270.838379,615.246887 
	C271.475281,616.910583 269.516418,618.167603 270.542175,619.645264 
	C272.408600,620.172974 273.863647,617.949463 275.703888,618.864380 
	C277.182770,620.825012 275.180695,623.670837 277.459595,625.315002 
	C278.993652,625.317566 279.604279,622.763672 281.787323,624.310608 
	C282.087006,630.001160 280.628174,635.785400 279.268066,642.575378 
	C285.857300,638.262573 288.180328,631.617981 292.895874,626.921692 
	C297.168152,630.428772 294.065521,635.432068 296.077728,639.181641 
	C300.798187,634.930359 300.224426,628.240845 304.471802,623.015930 
	C309.470612,633.642212 309.620422,643.984924 308.317383,655.506836 
	C317.840454,649.289062 318.687469,639.078979 323.880951,631.483093 
	C325.757965,633.527466 326.192261,635.490112 326.763062,637.361694 
	C327.984436,641.366455 329.517212,645.256958 332.009979,648.616089 
	C337.823639,656.450256 339.212952,656.236938 344.998077,648.124329 
	C348.592072,643.084473 350.088593,637.161011 352.724487,630.252380 
	C355.222168,635.628052 356.770538,640.006165 359.179413,643.844177 
	C361.479675,647.509094 362.727325,652.348328 368.651764,654.710205 
	C366.875610,643.317993 367.913757,633.261719 372.464722,622.309753 
	C375.582581,628.472168 376.589050,634.155945 380.393311,638.910156 
	C380.878296,634.514038 380.768982,630.209595 383.835541,626.419373 
	C387.989197,632.063599 391.353546,637.711182 397.119568,642.628784 
	C396.408234,635.421021 394.461304,629.448547 395.057098,623.541809 
	C397.724792,622.594055 397.957336,625.752075 399.915802,625.220398 
	C401.636475,623.392029 399.550720,620.519409 401.489563,618.922058 
	C403.512054,618.102539 404.932373,620.543823 406.804749,619.582092 
	C406.683563,618.199829 406.129211,615.932068 406.522858,615.753418 
	C411.745941,613.383301 412.469666,607.580933 415.635620,603.500427 
	C417.138000,606.049805 415.291992,608.942261 417.889130,611.313904 
	C425.109863,607.200684 425.717621,599.363220 427.921417,592.592407 
	C439.837891,596.632874 442.170166,596.725586 447.642181,593.478577 
	C447.187378,591.975281 445.654449,591.870422 444.600311,591.175110 
	C437.547638,586.522949 432.934326,577.359314 435.392639,571.821411 
	C439.934296,561.590271 446.835052,553.024475 454.956116,545.052124 
	C456.588867,552.217041 453.666748,558.698975 453.499176,565.775452 
	C456.770264,564.970337 457.868896,562.934326 458.984283,560.989807 
	C458.984283,560.989807 458.946136,561.020569 459.540466,560.706787 
M118.682533,266.852203 
	C113.114922,260.913208 106.939804,255.590912 101.845062,249.154907 
	C85.886940,228.995483 74.731827,206.801498 71.401619,180.991562 
	C71.088379,178.563904 71.660080,175.387711 69.019058,173.175644 
	C68.426674,173.952637 67.916138,174.410568 67.664719,174.982437 
	C55.385464,202.912964 56.975235,230.401459 69.900108,257.727997 
	C76.293449,271.245209 84.777901,283.290863 94.772400,294.210175 
	C102.280350,302.412842 110.020233,310.463928 118.627525,317.613434 
	C121.934219,320.360107 124.682343,320.434509 127.797684,317.615509 
	C135.551682,310.599060 143.383408,303.668488 151.131607,296.645691 
	C154.431244,293.654968 153.539764,291.491333 149.867783,289.384888 
	C138.900009,283.093231 128.580872,275.855103 118.682533,266.852203 
M92.314606,553.188965 
	C106.544441,567.913208 121.874771,581.567078 135.226303,597.143311 
	C148.013657,612.061340 156.647400,629.049011 160.371765,648.426086 
	C160.767715,650.486145 160.884857,652.683044 162.998047,653.840210 
	C165.102158,653.055847 165.232437,651.327576 165.670166,649.749878 
	C168.017563,641.289062 167.285461,632.609741 167.710083,623.993225 
	C168.543182,607.086914 161.673859,593.295471 150.987808,581.050720 
	C142.262222,571.052368 133.445923,561.183594 123.468063,552.276733 
	C113.442299,543.327148 104.270889,533.336060 95.379044,523.226135 
	C87.586487,514.366028 81.088058,504.554993 77.339310,493.064423 
	C75.244278,486.642761 73.959435,479.991760 71.980156,473.629395 
	C70.215271,473.795807 69.971573,474.982330 69.623680,475.785126 
	C64.250893,488.183044 62.217186,500.961273 66.121513,514.160278 
	C70.694130,529.618591 80.387932,541.751404 92.314606,553.188965 
M100.588470,199.409744 
	C90.513611,199.407318 90.344719,199.513718 90.386345,205.836975 
	C90.425598,211.798050 91.217781,212.489334 97.472900,212.636383 
	C127.089859,213.332565 156.678482,211.669815 186.286148,211.602188 
	C192.755478,211.587418 199.197083,211.532669 205.680710,210.824356 
	C210.653198,210.281097 210.680893,207.638077 210.647278,204.071869 
	C210.612183,200.351669 209.932281,197.569641 205.286224,197.346878 
	C201.396591,197.160370 197.724731,198.484955 193.892471,198.399384 
	C163.104507,197.711792 132.344818,199.604187 100.588470,199.409744 
M168.557755,457.465576 
	C173.048355,456.244965 175.417801,452.356567 178.528351,449.429779 
	C179.775208,448.256561 181.864761,447.051086 180.925537,444.942963 
	C180.037918,442.950592 177.802399,443.431763 176.011841,443.383636 
	C165.871094,443.111176 155.767441,443.860138 145.644684,444.307343 
	C127.545311,445.106964 109.408180,443.609314 91.284798,445.185577 
	C86.725861,445.582062 83.637093,446.832397 81.755806,450.813477 
	C80.794289,452.848206 78.416321,454.782379 79.539055,457.115509 
	C80.773849,459.681519 83.710449,458.545288 85.918983,458.583618 
	C113.196815,459.057159 140.443253,456.923615 168.557755,457.465576 
M109.003731,244.452286 
	C110.386810,245.425766 111.799507,245.947281 113.615799,245.911896 
	C138.538757,245.426300 163.463196,245.008087 188.388321,244.645279 
	C197.588974,244.511353 201.516556,241.565872 204.340363,232.215302 
	C202.067200,230.794769 199.509567,231.399689 197.107162,231.422928 
	C168.015182,231.704163 138.905212,230.541870 109.834175,232.442001 
	C107.271683,232.609482 103.757339,231.185303 102.420990,233.842361 
	C100.919762,236.827240 104.354637,238.714127 105.969193,240.900223 
	C106.755165,241.964417 107.626434,242.965622 109.003731,244.452286 
M119.607841,127.866104 
	C118.655907,122.071007 117.718910,116.270683 114.092827,110.949944 
	C111.205734,113.810455 111.413437,117.420631 109.968521,120.324425 
	C104.810326,130.690674 95.714920,137.761902 88.577972,146.456543 
	C81.077026,155.594604 75.649124,165.484055 76.473534,177.644547 
	C76.847977,183.167786 77.320816,188.946747 80.801788,193.846344 
	C82.715729,192.641098 82.969803,191.163376 83.125977,189.962936 
	C84.060974,182.775955 87.574783,177.036545 91.966064,171.385513 
	C96.837685,165.116333 103.190353,160.538589 108.846802,155.232224 
	C116.724419,147.842163 121.059723,139.654160 119.607841,127.866104 
M192.142395,164.382690 
	C189.345901,164.706604 186.549057,165.313171 183.752991,165.309586 
	C161.948456,165.281616 140.155762,165.668121 118.358101,166.258057 
	C112.134796,166.426483 107.374252,168.095062 103.476852,172.712097 
	C102.118286,174.321503 99.602036,175.690414 100.460854,178.041962 
	C101.405571,180.628693 104.232292,179.538345 106.247528,179.565781 
	C134.716507,179.953186 163.159058,177.888412 191.633560,178.614914 
	C191.800064,178.619171 191.969757,178.632538 192.133026,178.608337 
	C194.753815,178.219986 197.388611,177.903458 199.988571,177.405487 
	C201.619522,177.093109 202.645020,176.142349 202.400101,174.234924 
	C201.955444,170.771805 196.781097,165.328796 192.142395,164.382690 
M159.369263,424.628723 
	C169.776062,423.306610 180.238571,423.674530 190.686356,423.598602 
	C192.830246,423.583038 194.620712,423.034882 195.407120,420.743652 
	C197.803711,413.761292 194.887527,409.796783 187.736084,410.336823 
	C187.239471,410.374329 186.739029,410.369263 186.240341,410.370026 
	C164.320526,410.403870 142.402283,410.307892 120.492516,411.332672 
	C111.989708,411.730377 106.290413,415.567413 102.851654,424.629150 
	C121.511955,424.629150 139.954651,424.629150 159.369263,424.628723 
M129.506409,490.629822 
	C138.605225,490.202179 147.731720,491.408508 156.828918,489.746094 
	C161.798889,488.837921 161.581177,485.395905 161.585907,481.900330 
	C161.591125,478.056641 158.930237,477.578430 155.815765,477.334900 
	C148.397644,476.754883 141.002747,477.185791 133.589081,477.294769 
	C117.968658,477.524414 102.342537,477.355682 86.718811,477.384460 
	C84.442665,477.388672 81.890228,476.952362 80.682785,479.712921 
	C78.487404,484.732269 82.834938,491.396759 88.224030,491.650421 
	C101.682610,492.283813 115.073463,490.613770 129.506409,490.629822 
M176.697174,147.403397 
	C178.219574,146.445190 180.375854,147.195160 181.678879,145.641785 
	C178.964661,138.693878 173.064148,134.430115 166.204666,134.422211 
	C159.895905,134.414932 153.584625,134.312241 147.279205,134.457550 
	C142.327377,134.571686 137.377563,134.000458 132.414001,135.164795 
	C127.506950,136.315857 127.347221,139.924942 127.505013,143.585861 
	C127.673050,147.484467 130.829208,147.483673 133.744095,147.608459 
	C147.783234,148.209595 161.820572,148.639496 176.697174,147.403397 
M170.557129,392.627228 
	C175.623734,392.090485 181.119156,394.111267 185.737076,390.378967 
	C178.478775,375.110413 164.773010,379.757416 152.972137,379.528198 
	C144.350754,379.360779 140.405075,386.701202 134.054291,392.898163 
	C146.989639,394.315826 158.290024,393.543579 170.557129,392.627228 
M137.429245,262.479828 
	C133.454315,263.458130 132.646332,265.595306 135.773956,268.317352 
	C141.992813,273.729797 148.551163,278.297211 157.625763,276.667419 
	C164.401413,275.450531 171.690247,275.957092 176.443237,269.440735 
	C177.618591,267.829346 179.544250,266.387329 178.858704,264.308624 
	C178.085632,261.964569 175.592514,262.440643 173.661362,262.435242 
	C161.858490,262.402161 150.055435,262.430634 137.429245,262.479828 
M472.536926,127.845276 
	C474.095673,124.486244 477.837250,124.154495 480.373993,122.355484 
	C476.750366,117.627892 484.088013,115.583282 482.838623,111.574066 
	C478.566101,111.355171 473.101379,115.066483 472.249847,118.563927 
	C471.863953,120.148979 471.008148,121.613731 470.463226,123.167328 
	C469.634644,125.529610 468.095337,127.772209 468.732117,130.460526 
	C470.728302,130.714554 471.302551,129.343933 472.536926,127.845276 
z"/>
<path fill="#000000" opacity="1.000000" stroke="none" 
	d="
M370.921722,514.575073 
	C373.974182,518.312439 376.107208,522.501221 376.803101,527.541016 
	C375.528961,527.059875 374.772858,525.532288 373.322449,527.306702 
	C370.866272,530.311646 369.407104,528.455017 368.246063,526.099609 
	C367.446472,524.477478 366.762329,522.778931 366.218964,521.053894 
	C364.829956,516.643982 363.548523,512.200134 362.106079,507.375214 
	C360.775848,509.030975 360.661438,510.343323 360.304443,511.616577 
	C358.163879,519.250549 359.972595,526.680725 361.245392,534.147949 
	C356.815918,529.199158 356.218750,523.278015 357.042633,517.063782 
	C357.737640,511.821808 360.097412,506.855804 359.648407,501.413086 
	C359.513489,499.777985 359.817780,498.055206 358.096832,496.206512 
	C351.918457,514.414978 349.204620,532.743958 350.632812,552.539551 
	C346.521393,548.020630 345.353882,538.694458 347.113281,530.042480 
	C348.564514,522.906006 350.055389,515.777710 350.751465,508.407440 
	C344.797516,514.966919 341.072479,522.386719 340.340942,531.236511 
	C339.291656,543.930054 342.511200,555.718201 348.416809,566.705688 
	C353.527618,576.214294 354.680969,585.786865 351.413879,596.006287 
	C349.384247,602.355042 349.835602,608.924377 350.783600,615.288208 
	C352.678772,628.010315 349.943726,639.306641 342.226105,649.552979 
	C339.960388,652.561035 337.897491,652.329895 335.822906,649.755676 
	C328.196320,640.292297 324.434052,629.676758 326.579224,617.402222 
	C326.893311,615.604858 327.699799,613.778198 327.540100,612.032654 
	C326.667816,602.497742 333.779999,596.381226 337.280914,588.733276 
	C337.457611,588.347290 338.064636,588.158325 338.816315,587.639526 
	C343.578430,590.974182 343.834717,597.510986 348.012909,601.498962 
	C348.925781,596.725159 344.725952,587.259583 341.152679,585.255859 
	C339.227783,584.176453 338.018005,585.116272 336.792633,586.360840 
	C333.003784,590.209167 328.136902,593.388855 328.813568,600.166321 
	C325.726837,597.492249 326.068146,594.107422 325.396545,591.100647 
	C323.671173,583.376404 324.308228,575.874146 328.069550,568.837708 
	C333.058899,559.504089 336.934418,549.691528 337.365173,539.122803 
	C337.841644,527.432434 334.997467,516.437439 325.852936,506.407532 
	C328.321960,522.030884 334.685608,536.313293 328.126434,551.166504 
	C328.608917,532.528992 326.380341,514.364868 319.602997,496.897461 
	C319.272064,497.076111 318.770813,497.214203 318.765869,497.368347 
	C318.461761,506.806976 312.532684,514.525452 310.786072,523.597473 
	C309.853333,528.442078 307.445404,528.849670 303.232147,526.601624 
	C300.213501,530.602356 299.026733,537.638916 301.419647,539.905701 
	C305.665710,543.927856 309.599457,540.784058 313.574921,538.417786 
	C311.968018,546.841187 307.446106,547.870300 298.416168,542.181030 
	C295.874054,543.057190 295.976593,545.902283 294.206238,547.403809 
	C296.305206,534.586853 300.947632,522.859680 307.956238,512.468262 
	C308.254425,516.414062 304.912964,519.809387 307.684540,524.408081 
	C310.991913,518.724731 311.982605,513.249817 312.874573,507.309479 
	C311.380981,507.812683 310.609467,508.072632 309.814545,507.933746 
	C310.276428,504.224609 313.092957,501.450439 311.979950,496.445923 
	C299.628174,519.042297 287.814423,540.550354 283.808899,565.289062 
	C281.537659,564.734985 282.245056,562.217529 280.235718,561.301392 
	C278.327911,563.902588 276.341095,566.496399 274.493256,569.185608 
	C273.716766,570.315735 273.360779,571.755615 274.380737,572.919861 
	C280.031921,579.370422 284.265686,586.871948 289.606903,594.206543 
	C291.731598,590.653687 289.829010,587.378906 290.466278,583.911316 
	C293.310699,586.616760 293.221008,589.855469 294.026123,592.794373 
	C295.124908,587.480164 294.409576,582.394165 293.216248,577.200195 
	C290.973633,567.439209 290.176453,557.602722 294.016541,547.954712 
	C294.351227,554.699829 291.709747,561.610657 294.441437,568.176636 
	C299.731171,580.891174 298.130859,595.051758 303.131226,607.828125 
	C304.678009,611.780212 302.056763,622.936035 299.502502,626.506165 
	C298.579041,626.363281 297.979279,625.792664 297.858429,624.913696 
	C295.421387,607.192566 285.556061,593.279724 274.767456,579.845337 
	C267.921204,571.320190 260.387024,563.395447 254.725906,553.874207 
	C246.123322,539.405762 248.205414,524.562256 251.888840,509.480469 
	C252.035950,508.878143 252.524078,508.297394 252.994446,507.857544 
	C253.305176,507.566956 253.868744,507.546722 255.390442,507.069336 
	C253.160721,519.036682 247.803864,530.586243 254.831100,542.100769 
	C253.204926,532.757446 254.083389,523.595337 256.541901,514.555115 
	C257.085968,512.554504 257.097321,509.775543 260.128937,510.103210 
	C263.295807,510.445496 264.614014,512.696350 264.293427,515.820679 
	C263.753357,521.084351 262.766144,526.309326 264.342438,531.606445 
	C265.507019,535.520020 266.329041,539.529724 269.895935,542.849976 
	C272.012604,534.741211 276.827667,528.535828 279.936096,521.507568 
	C284.296539,521.839722 285.241089,524.254150 284.107727,527.402100 
	C280.063141,538.636414 276.538818,550.151367 267.367157,558.704224 
	C263.831604,562.001282 264.248138,563.951294 268.325134,567.059998 
	C272.048065,569.898865 273.254608,566.678955 274.754608,564.396057 
	C283.766205,550.681213 288.133301,535.187683 291.638794,519.420837 
	C293.561096,510.774841 295.061768,502.022308 294.511047,492.516998 
	C291.267944,495.270538 293.319916,499.287659 289.797638,502.319733 
	C290.136627,494.063171 289.899200,486.625641 292.490570,478.715088 
	C295.593933,481.517883 293.162903,485.165283 295.309265,487.505676 
	C297.751434,486.339417 298.220734,483.865723 299.564209,482.066315 
	C301.260773,479.793915 302.451721,476.506531 306.679626,478.193298 
	C306.677795,482.857208 306.676819,487.055786 301.824005,489.265533 
	C299.851318,490.163788 299.072968,492.630676 298.745941,494.771118 
	C297.656189,501.903992 296.748413,509.064667 295.770874,516.214722 
	C303.501343,507.625763 306.600708,496.488586 312.388580,486.038666 
	C313.956696,489.595367 312.555176,493.243561 315.819427,495.498169 
	C317.196808,492.571899 316.268005,489.226227 318.564819,486.995392 
	C320.942657,488.082153 320.308807,490.530273 321.178680,492.231720 
	C322.219177,494.266876 322.378113,496.714386 324.488922,498.223938 
	C330.392609,502.446075 333.652069,508.558990 336.346222,515.065979 
	C337.062195,516.795288 337.072388,518.974487 339.333313,520.206360 
	C340.734985,516.740967 341.952179,513.489258 343.358887,510.321716 
	C344.781799,507.117615 346.720551,504.254181 349.136688,501.653290 
	C351.291656,499.333557 354.488251,497.740448 355.670990,494.266693 
	C348.785370,497.514709 345.992157,504.024475 341.631073,509.149597 
	C341.116730,505.705933 342.740326,503.269592 344.103119,500.632935 
	C347.287079,494.472992 354.547485,491.275269 356.089935,483.964783 
	C356.091492,483.957306 356.621796,484.061371 356.912323,484.114380 
	C357.859833,485.740234 355.537872,487.208984 356.803864,489.014984 
	C357.398621,488.301727 357.960693,487.627625 358.600098,486.860779 
	C361.557098,489.080597 359.549927,493.472015 362.918091,495.803162 
	C363.728729,492.662781 364.470215,489.790314 365.335358,486.438782 
	C368.293457,489.446960 367.441711,493.596649 370.436310,496.256500 
	C371.022247,490.202789 369.997498,484.581726 371.291809,478.581451 
	C369.816528,480.150879 370.738159,482.706848 368.302429,483.036957 
	C367.235992,481.406799 367.621582,479.891632 368.104889,478.233673 
	C369.544800,473.294037 370.921082,468.330475 372.126587,463.329102 
	C373.796997,456.399231 372.725311,451.241760 369.287720,448.551270 
	C370.040527,461.590759 366.748230,473.864868 362.805756,486.115906 
	C361.074249,483.610992 360.159515,481.075287 356.934326,481.352478 
	C357.038300,479.656525 357.609558,478.683685 358.360138,477.895813 
	C360.041626,477.350891 360.300903,480.486786 362.200043,479.226593 
	C362.893341,477.730316 362.596680,476.303741 361.950500,474.901550 
	C361.260193,473.403656 360.751434,471.484039 358.688446,471.629761 
	C356.493256,471.784790 356.544464,473.747223 356.282959,475.407806 
	C355.757507,478.744141 354.277100,481.682129 352.541443,484.566681 
	C350.996918,487.133698 348.788879,487.784149 346.841034,485.989777 
	C344.924866,484.224579 343.161804,484.616211 340.634003,485.483002 
	C340.634003,480.565277 340.565826,476.265228 340.654205,471.968445 
	C340.733978,468.089111 341.384460,464.628510 345.064850,462.053558 
	C347.376099,460.436462 349.045044,456.359436 346.828583,454.703308 
	C343.702606,452.367523 341.952606,449.257660 339.952698,446.291260 
	C336.510315,447.754395 336.731354,451.670837 333.904419,453.166290 
	C330.939392,454.734863 330.096130,459.708618 332.757111,461.523621 
	C340.376068,466.720520 338.125519,474.312378 338.030121,481.370148 
	C338.014801,482.501953 337.502625,484.082886 336.162445,484.722748 
	C328.694489,488.288361 325.309875,486.594635 322.400146,478.264862 
	C321.569336,475.886475 322.052185,472.840393 319.173401,471.096100 
	C314.868561,473.512512 315.625031,477.745575 315.137299,481.775696 
	C314.799347,482.107330 314.664154,482.239960 314.300842,482.074127 
	C311.147125,470.092621 306.488220,458.632050 309.888458,446.185120 
	C307.913361,446.068634 307.795746,447.352966 307.309204,448.387939 
	C303.222046,457.081482 306.379303,465.322968 308.875061,473.587921 
	C309.717896,476.379120 310.894958,479.089508 309.780823,482.563232 
	C308.649109,480.708984 307.819550,479.349854 306.989990,477.990723 
	C306.434143,474.002869 305.661438,470.319092 300.356171,470.283386 
	C296.980286,470.260681 295.973297,467.725006 295.608795,464.884491 
	C295.128815,461.143890 294.726990,457.393280 294.307098,453.780548 
	C291.888336,453.204987 292.714539,455.737579 291.292419,456.232330 
	C290.940186,455.690308 290.430084,455.208191 290.282196,454.632904 
	C287.564423,444.060150 283.914093,433.701294 282.856964,422.746796 
	C282.752289,421.662231 282.456055,420.850159 281.537750,420.243774 
	C277.069550,417.293396 276.500366,412.892181 276.567474,407.972870 
	C276.740112,395.312927 277.234222,382.610504 276.434937,369.998840 
	C275.777924,359.632050 279.869080,351.287964 284.700562,342.891235 
	C287.563385,337.915833 290.672974,333.037170 291.113861,327.002167 
	C286.017822,333.624359 283.324036,341.739716 277.744476,349.004028 
	C275.826935,343.943787 276.443970,339.442261 276.762848,335.176056 
	C277.209412,329.201385 275.548523,325.239014 269.958832,322.347626 
	C265.757751,320.174530 262.364380,316.485291 258.455719,313.688629 
	C254.612823,310.939026 255.785950,305.334106 251.865921,302.664917 
	C250.945770,302.038391 250.447968,300.825348 249.598907,300.055115 
	C244.577011,295.499359 244.553452,294.867706 249.308411,289.606873 
	C250.300720,288.508972 251.180969,287.309784 252.275558,285.955994 
	C250.051453,285.746307 248.591354,286.984528 246.929367,287.529510 
	C245.511490,287.994507 244.124496,288.557556 242.697098,288.988708 
	C240.506073,289.650482 238.914185,288.516144 238.348999,286.658142 
	C236.937851,282.019165 233.884705,277.384613 236.996201,272.391998 
	C238.620316,269.786041 240.935287,271.601990 242.823746,272.194885 
	C248.851440,274.087219 254.842239,276.105408 260.797241,278.216187 
	C262.753448,278.909546 265.042633,279.085266 266.691650,281.249115 
	C262.239105,285.241547 254.868988,285.590271 252.694290,292.628967 
	C257.687195,297.068939 261.528198,303.160583 269.927826,304.680878 
	C266.563171,300.486603 260.513824,298.576477 262.388885,292.641693 
	C263.558624,288.939362 267.461090,289.683868 270.377472,288.946930 
	C272.273712,291.525299 272.411285,296.686890 277.098022,294.496979 
	C280.512299,292.901611 277.552612,290.335846 276.414886,288.215057 
	C280.362305,286.025116 284.497742,286.253326 286.843262,289.545105 
	C290.591736,294.805908 286.436462,299.118439 283.420410,303.293915 
	C292.983704,305.286957 293.265717,304.928528 292.276733,291.597015 
	C297.396210,293.969666 300.178619,298.080231 302.708374,302.417084 
	C307.818848,311.178070 310.477570,320.712524 311.323608,330.757812 
	C311.533173,333.246063 312.043060,335.340607 314.363281,336.625824 
	C321.669830,340.673218 327.896637,346.197906 334.436584,351.294739 
	C335.659271,352.247620 336.957886,354.236542 338.039001,351.159760 
	C338.473694,349.922668 338.647400,350.481781 338.994843,351.235077 
	C340.360321,354.195465 341.749542,351.799774 342.743896,351.024200 
	C349.287262,345.920319 355.734772,340.694977 362.752167,336.232330 
	C366.794220,333.661865 366.187653,329.313385 366.575409,325.501465 
	C367.944733,312.039703 374.038544,300.884094 382.934113,291.042877 
	C383.671570,290.227051 384.511322,289.276276 386.203186,289.379181 
	C385.888214,292.944733 384.019562,296.212067 384.369232,299.877106 
	C384.664307,302.970551 385.379639,304.990509 389.151337,304.557617 
	C393.817383,304.022064 398.220734,306.107208 403.096558,305.620667 
	C401.518127,305.204498 399.948944,304.748413 398.359528,304.379700 
	C393.770508,303.315216 391.317841,299.966827 389.983246,295.892212 
	C388.290619,290.724548 393.726349,286.864777 400.383087,288.386200 
	C400.637421,290.512573 397.543243,293.508484 401.461243,294.692810 
	C405.363281,295.872375 406.020264,292.434265 407.075226,289.891968 
	C416.083374,289.392487 416.915009,291.025543 413.087585,302.050232 
	C419.236725,302.518372 419.822968,293.951447 425.890259,294.430298 
	C423.808319,286.641144 415.994507,285.368225 409.931183,280.908447 
	C419.036865,276.328125 428.422882,274.887421 437.511597,271.061615 
	C434.634613,269.053345 432.116516,271.525299 430.133087,269.765381 
	C434.663391,267.222198 438.027924,266.889771 444.403046,268.522675 
	C440.567688,272.643250 441.303528,278.035828 439.924042,282.836578 
	C438.033417,289.416138 436.923737,290.119385 430.465759,287.715668 
	C428.633911,287.033844 426.819244,286.305847 424.061066,285.236115 
	C426.810791,288.430573 429.053497,290.767548 430.955658,293.354950 
	C431.959137,294.719940 433.458374,296.940826 431.160278,298.101105 
	C426.984802,300.209137 424.613922,304.040619 422.641022,307.620178 
	C418.649323,314.862518 412.082764,318.895996 405.609894,322.996277 
	C401.537415,325.576050 399.927185,328.493439 400.284576,333.172974 
	C400.623993,337.617340 400.357605,342.107971 399.793823,346.774902 
	C392.944397,338.850830 388.906891,329.349518 383.718964,320.482574 
	C383.699921,327.297028 386.900543,333.032928 389.931580,338.789215 
	C392.796661,344.230347 395.927002,349.531891 398.786255,354.975922 
	C399.945251,357.182617 400.398895,359.629700 400.387817,362.197815 
	C400.318817,378.191986 400.286774,394.186707 400.356049,410.180756 
	C400.371368,413.717194 399.518250,416.755310 396.875549,419.165558 
	C395.094086,420.790344 394.484985,422.698639 393.996246,425.150574 
	C392.311188,433.604889 390.013885,441.939453 387.854095,450.294922 
	C387.431549,451.929565 386.735687,453.942169 384.517761,450.822327 
	C384.196167,456.648254 381.798401,461.775299 382.901093,467.670715 
	C383.011230,468.024872 383.047058,467.979065 383.047058,467.979065 
	C381.037659,471.271454 377.284576,469.794678 374.556976,470.935852 
	C373.517731,477.790314 377.616974,482.104218 381.698456,486.940277 
	C383.306610,484.553314 381.958038,481.443817 384.410156,479.917603 
	C386.731232,483.571411 387.064728,487.897644 385.696442,497.315948 
	C384.196930,496.120697 385.565308,493.514709 382.990356,492.816833 
	C381.199554,499.242340 382.608337,505.606018 383.742950,511.770996 
	C386.446869,526.463013 390.162537,540.929993 396.613129,554.505310 
	C398.595123,558.676453 396.471466,561.554932 394.092865,564.820068 
	C392.012024,552.702454 387.915771,541.358887 382.877380,530.313782 
	C377.912598,519.429871 372.942596,508.561798 366.233337,498.607361 
	C365.563843,503.848572 369.899292,507.396851 369.780365,512.467712 
	C368.110260,511.044647 366.761810,509.409119 364.613007,506.802887 
	C366.769165,513.117493 366.683502,518.976196 370.820923,523.879761 
	C372.842987,520.253540 370.054016,517.452454 370.921722,514.575073 
M327.062714,431.301361 
	C331.831573,430.795624 336.704346,429.406372 341.349426,429.952820 
	C354.330048,431.479919 367.428162,432.658142 379.939697,436.910858 
	C381.297607,437.372437 382.815216,438.221588 383.800262,435.894165 
	C383.459320,435.476471 383.162720,434.751434 382.654907,434.544373 
	C372.699799,430.485260 363.293335,424.992340 352.427460,423.320129 
	C342.205841,421.747070 339.785797,418.486450 340.668243,408.143616 
	C341.883240,393.903442 345.247528,389.998566 359.101532,386.233185 
	C362.284607,385.368073 365.500366,384.257874 368.364105,382.657440 
	C374.801971,379.059448 379.186676,373.910004 379.680786,365.942352 
	C375.690063,365.988251 375.717041,370.411835 372.762817,370.920563 
	C370.820129,370.372864 369.618958,368.916321 368.449524,367.554993 
	C362.375763,360.484467 355.284454,358.392395 346.717346,362.805328 
	C342.122284,365.172272 337.413849,364.815125 332.680054,363.249634 
	C330.472412,362.519531 328.267151,361.782135 326.055206,361.065247 
	C321.540802,359.602020 317.646088,360.370178 314.187225,363.852020 
	C311.410431,366.647217 309.006531,369.904449 305.543030,371.876801 
	C302.304962,370.736847 302.107330,366.271729 298.280548,365.854858 
	C296.693359,368.348602 298.464661,370.321045 299.402832,372.254181 
	C303.743378,381.197937 311.808380,384.626007 320.870941,386.714020 
	C331.370148,389.133087 336.367188,395.489227 336.363068,405.917572 
	C336.362061,408.415070 336.194397,410.925873 336.393402,413.407288 
	C336.806854,418.562195 334.047455,421.373840 329.459320,422.168976 
	C317.351410,424.267334 306.434692,429.529297 295.383667,434.466370 
	C293.998474,435.085236 292.008942,435.377228 292.434296,438.471344 
	C303.608856,435.366516 314.643982,432.054474 327.062714,431.301361 
M333.826141,604.176392 
	C330.500000,617.148682 332.681030,629.308716 338.302979,641.295532 
	C339.526672,640.687317 339.962799,640.620483 340.089142,640.386414 
	C348.121368,625.503906 348.207642,610.394165 341.179535,595.169434 
	C339.755920,592.085449 337.927460,592.628662 336.765228,595.417664 
	C335.689301,597.999634 334.976379,600.732910 333.826141,604.176392 
M381.338104,510.664429 
	C380.768768,506.426514 380.296112,502.172638 379.602081,497.955261 
	C378.946960,493.974365 378.339691,489.853943 373.754059,487.982208 
	C370.002747,497.457001 373.282013,507.368622 381.739136,515.895508 
	C381.663422,514.408691 381.587738,512.921814 381.338104,510.664429 
M371.811859,344.488708 
	C371.288879,340.724670 370.717865,336.977570 367.633484,333.257233 
	C367.406036,344.167938 369.779755,354.014862 371.526337,363.965607 
	C375.464996,357.785004 372.251068,351.518555 371.811859,344.488708 
M344.810150,574.804077 
	C346.657928,577.535645 347.196930,581.125122 350.574677,583.955200 
	C350.677856,573.905884 345.269592,567.135742 341.043427,559.848999 
	C340.964264,564.978333 342.171295,569.698059 344.810150,574.804077 
M336.221039,558.708130 
	C333.324677,566.751099 327.539856,573.870239 328.107330,583.030029 
	C333.085541,576.356140 335.930634,568.834961 337.599060,560.838745 
	C337.882660,559.479553 337.706024,559.307068 336.221039,558.708130 
M305.384094,352.919067 
	C305.606171,354.105316 304.829712,355.631622 307.400452,356.716095 
	C308.987000,350.084930 309.694397,343.598572 309.532227,336.947388 
	C305.912567,341.445923 306.078918,346.907440 305.384094,352.919067 
z"/>
<path fill="#000000" opacity="1.000000" stroke="none" 
	d="
M459.001434,560.972290 
	C458.089996,561.050903 457.259277,561.962769 456.018738,561.170227 
	C456.296173,555.871277 460.725250,553.043762 463.633545,549.504456 
	C474.159393,536.695007 479.153229,521.916321 480.664581,505.646423 
	C482.553436,485.312622 475.499268,466.437469 471.413391,447.072754 
	C469.670746,438.813507 467.324951,430.668945 467.574768,422.071991 
	C467.687561,418.192200 468.211853,414.521942 469.599884,410.883820 
	C471.503510,405.894196 471.379486,401.208405 467.161957,397.118347 
	C465.132080,395.149841 463.277283,392.851776 462.836243,389.796539 
	C468.467865,393.398712 471.737732,398.660950 473.622711,404.982513 
	C475.425323,402.091858 475.463135,399.798889 473.362000,395.618927 
	C471.425323,391.766174 469.221222,388.047729 467.129181,384.273315 
	C466.051910,382.329651 465.482300,380.522736 468.572815,379.440002 
	C471.148682,384.169708 473.961090,388.818787 476.275421,393.703827 
	C479.763123,401.065582 485.348206,406.756744 490.693726,412.643433 
	C494.826996,417.195221 498.966644,421.780243 503.487213,425.932800 
	C511.487976,433.282227 511.967773,443.106689 513.462891,452.848816 
	C515.649658,467.097076 510.666412,480.388184 508.885223,494.103210 
	C508.445953,497.485535 508.026398,500.870453 507.422821,505.635590 
	C500.297913,497.394684 503.026886,488.338501 502.005157,479.994934 
	C497.933533,480.150116 497.973785,485.081268 493.692871,485.667328 
	C499.923157,467.532196 503.192413,449.558167 493.163910,432.008331 
	C492.555420,438.770477 496.528595,445.559784 492.230286,452.480652 
	C493.820312,435.145813 484.602936,421.658661 477.255768,406.501282 
	C471.118561,416.622955 471.722656,426.329498 473.652069,436.254456 
	C475.868958,447.658264 478.566010,458.973602 482.106262,469.997528 
	C485.845184,481.640137 484.327972,493.165710 483.504517,504.861176 
	C482.675201,516.639587 479.693268,527.703918 474.404602,538.232361 
	C470.343201,546.317566 464.665985,553.263794 459.111359,560.722046 
	C458.946136,561.020569 458.984283,560.989807 459.001434,560.972290 
z"/>
<path fill="#000000" opacity="1.000000" stroke="none" 
	d="
M422.361511,554.097412 
	C416.152863,565.048950 407.373779,573.541382 399.943695,583.084167 
	C389.540375,596.445557 380.508881,610.472778 379.135345,628.035767 
	C379.104523,628.430176 378.665771,628.792664 378.371521,629.239624 
	C376.357971,628.227295 376.148193,626.286621 375.719238,624.614136 
	C373.400940,615.575134 374.073669,606.660889 376.748505,597.762268 
	C379.300568,589.271973 379.528290,580.501709 379.147064,571.712280 
	C379.098511,570.592896 379.356293,569.784607 380.390411,569.215576 
	C382.322662,570.005737 380.774292,571.980286 381.974091,573.453125 
	C384.903503,568.319336 384.445343,562.701050 385.254669,557.329407 
	C389.144165,569.428467 381.203369,581.060730 383.757294,593.132874 
	C385.279938,590.204041 384.278625,586.573792 387.057556,583.952942 
	C388.460602,587.175110 385.498810,590.531311 387.359039,594.384888 
	C392.006989,590.551025 394.063629,585.528503 397.231537,581.447754 
	C400.032104,577.840149 403.264374,574.483032 404.919434,569.924316 
	C405.666107,567.867676 408.925964,567.429565 410.636810,565.534058 
	C412.600586,563.358276 412.931854,561.516846 410.607880,559.626526 
	C400.321747,551.259888 397.051239,539.044128 392.886597,527.337158 
	C392.137543,525.231567 391.111084,522.806641 394.408508,521.510620 
	C397.884369,520.144470 398.331024,523.046875 399.307892,524.932922 
	C402.258148,530.629089 405.344635,536.272888 407.123138,543.176208 
	C410.587463,539.383240 412.044464,535.445618 412.565125,531.186646 
	C413.082062,526.958069 414.072327,522.744385 412.757690,518.404114 
	C412.252319,516.735718 412.615692,514.758545 412.787872,512.941467 
	C413.029022,510.396606 415.202759,509.864410 417.117126,509.572906 
	C419.241241,509.249481 419.088196,511.180878 419.522034,512.598511 
	C422.533539,522.438110 423.269623,532.415710 421.554749,542.606018 
	C425.290527,537.853577 426.286926,529.806396 424.230255,520.411377 
	C423.557312,517.337280 422.621979,514.321106 421.927002,511.251190 
	C421.544312,509.560730 420.665253,507.583954 424.114716,506.425140 
	C430.330780,522.536621 430.369690,538.210022 422.361511,554.097412 
z"/>
<path fill="#000000" opacity="1.000000" stroke="none" 
	d="
M517.970154,358.212219 
	C521.453918,363.387451 521.453918,363.387451 522.678284,376.954987 
	C530.170715,367.986938 527.784546,358.203796 515.671692,348.228027 
	C519.238647,340.222198 517.831055,339.532990 504.798798,331.330353 
	C508.210846,330.343689 511.108490,329.932465 513.616333,332.570770 
	C519.400818,338.656036 525.734680,341.287170 534.277283,334.612213 
	C532.383972,340.769226 530.439697,345.504730 529.506042,350.431732 
	C526.895447,364.207184 528.271790,377.830719 531.866028,391.314636 
	C534.732849,402.069427 537.265747,412.892670 536.367432,424.180969 
	C535.888733,430.196564 534.343628,435.684143 529.396606,440.147003 
	C525.846741,435.781677 523.409851,431.257385 518.625916,427.434235 
	C525.427551,426.699829 528.820129,423.263824 530.184998,417.247467 
	C524.107849,415.504425 520.533264,411.175537 517.731995,405.915894 
	C515.830872,402.346344 512.951721,399.436981 509.729706,397.110748 
	C499.959717,390.057098 496.797821,379.845703 495.677124,368.629242 
	C495.380676,365.662292 495.435211,362.625549 495.667603,359.647308 
	C496.246552,352.228149 494.957031,345.453064 489.931671,339.624542 
	C489.061554,338.615326 487.842957,337.360443 488.392456,335.612610 
	C490.227661,334.175507 491.000549,335.386292 491.708313,336.898438 
	C494.204559,342.231659 499.112762,344.862976 503.938171,347.430725 
	C509.135712,350.196472 513.868286,353.470062 517.970154,358.212219 
M520.193359,391.321533 
	C518.245605,394.364563 516.383362,392.508698 515.213135,390.849426 
	C513.627563,388.601135 512.340210,386.016937 512.952637,383.028412 
	C518.205017,382.710266 520.395569,373.456970 516.931335,366.921875 
	C515.581726,367.539795 517.043701,369.629486 515.150513,370.107544 
	C514.603455,367.835144 514.157837,365.566986 513.506714,363.359406 
	C511.725494,357.320618 507.797119,352.968933 502.534485,349.704285 
	C501.528778,349.080353 500.505310,348.344696 499.338959,349.202179 
	C498.199249,350.040131 498.421326,351.250671 498.792175,352.391876 
	C499.648224,355.025940 499.326874,357.588623 498.719604,360.246887 
	C496.270294,370.968414 498.725189,380.591095 505.548798,389.147156 
	C509.668549,394.312866 517.680176,398.064667 520.602600,395.069458 
	C523.812622,391.779572 526.585510,393.226410 530.005188,393.620789 
	C529.440979,388.627380 528.420654,384.213593 525.701599,379.434967 
	C523.082214,383.546539 521.143616,386.772858 520.193359,391.321533 
M519.782288,399.792847 
	C519.145996,403.881592 522.017212,409.353729 525.605286,410.288239 
	C527.566589,410.799072 530.208496,411.648468 531.437317,409.353729 
	C532.453369,407.456238 531.742432,405.164307 530.197083,403.425171 
	C527.579956,400.479736 523.945740,400.090088 519.782288,399.792847 
z"/>
<path fill="#000000" opacity="1.000000" stroke="none" 
	d="
M365.509766,628.408997 
	C364.758972,632.759155 364.100616,636.682190 364.291260,640.706238 
	C364.351074,641.969849 364.444214,643.567871 362.634552,643.875549 
	C361.182678,644.122437 360.339020,642.875854 360.112000,641.876831 
	C359.076141,637.318298 354.167786,633.612671 357.146118,628.074341 
	C357.560211,627.304321 356.465973,625.619019 355.896484,624.441284 
	C352.067810,616.523132 351.246063,608.316650 355.203369,600.412659 
	C359.992126,590.848022 361.079712,581.513916 356.084869,571.797852 
	C355.837433,571.316528 356.053040,570.597168 356.053040,569.705444 
	C367.360291,579.840271 369.178650,592.667603 361.412964,605.572266 
	C367.915497,603.359802 372.303467,595.881348 371.883667,586.644897 
	C371.471771,577.582886 369.293610,568.916931 364.303162,561.147705 
	C363.508423,559.910400 362.815460,558.607727 361.783051,556.832458 
	C364.713562,556.686707 365.619781,558.632324 366.601440,560.073364 
	C371.333160,567.019653 372.894989,574.818848 373.339752,583.147461 
	C374.080658,597.022095 371.236389,610.192078 366.893250,623.185730 
	C366.368103,624.756836 366.017975,626.386414 365.509766,628.408997 
z"/>
<path fill="#000000" opacity="1.000000" stroke="none" 
	d="
M313.711548,642.128052 
	C314.218109,629.158752 309.280212,617.679382 306.367340,605.803711 
	C303.577484,594.429688 304.068726,583.041138 305.969635,571.697327 
	C306.904816,566.116577 309.730835,561.220215 314.579315,557.590271 
	C310.949982,565.587036 307.515869,573.611450 306.451935,582.365601 
	C305.238342,592.351379 309.141510,601.735352 315.859985,605.190002 
	C308.530304,592.495483 310.703064,578.577393 321.749207,569.868835 
	C320.829590,575.084412 318.102448,579.435730 318.277649,584.537842 
	C318.417908,588.621216 319.145172,592.388367 320.943512,596.057495 
	C325.646454,605.652710 326.526001,615.350464 321.410187,625.150452 
	C319.783173,628.267212 322.955841,631.793823 320.435486,635.105408 
	C318.662659,637.434814 317.912537,640.515503 316.461487,643.124939 
	C315.177429,645.434082 314.051208,645.373718 313.711548,642.128052 
z"/>
<path fill="#000000" opacity="1.000000" stroke="none" 
	d="
M209.658691,483.695221 
	C216.486145,476.451355 218.976913,467.177856 221.723618,458.013641 
	C222.160446,456.556152 223.228470,455.498535 224.593292,454.739502 
	C225.835464,456.214447 225.048126,457.549896 224.491669,458.921173 
	C219.153748,472.075775 216.230225,485.939728 214.686127,499.879395 
	C213.533707,510.283051 218.862503,519.511719 225.065521,527.733826 
	C227.772186,531.321472 230.128036,535.086548 234.914368,537.139160 
	C237.544525,538.267090 238.620605,543.018799 241.113052,547.392456 
	C242.272125,538.916077 241.104660,531.671448 242.530014,524.585022 
	C243.946869,517.540955 245.339096,510.600250 249.607925,504.219055 
	C252.088501,506.631134 250.601974,508.565918 249.964096,510.187195 
	C246.772797,518.298096 244.853882,526.758179 244.505829,535.362976 
	C243.999084,547.890991 246.737686,559.820740 254.319519,570.143311 
	C256.203308,572.708130 256.491699,575.120178 255.986252,578.052246 
	C254.871780,584.517029 252.491501,590.858826 254.053238,597.775513 
	C251.754639,595.719482 251.668762,595.720886 251.625610,593.130249 
	C251.561844,589.302734 251.335663,585.443909 251.704346,581.649475 
	C252.883560,569.513611 247.049850,560.404175 239.712570,551.628052 
	C232.384476,542.862854 223.214905,535.639893 217.713272,525.338928 
	C211.284027,513.301147 208.038651,500.752930 211.230087,487.094879 
	C211.447693,486.163635 211.909607,485.148010 210.405304,484.221497 
	C210.027573,484.020721 209.658691,483.695221 209.658691,483.695221 
z"/>
<path fill="#000000" opacity="1.000000" stroke="none" 
	d="
M467.847046,486.006104 
	C464.992615,484.704559 466.407654,487.056061 466.484314,487.493591 
	C469.824371,506.563293 464.264618,522.716553 451.316071,536.919434 
	C445.403137,543.405151 438.987427,549.508545 433.982147,556.810181 
	C433.430237,557.615234 432.709564,558.375854 430.461548,558.245300 
	C436.640533,540.054443 433.172089,522.488586 427.240692,505.006500 
	C432.529907,510.552521 433.715179,517.646240 434.996796,524.563782 
	C436.293182,531.561218 436.540710,538.709473 436.413177,546.118347 
	C438.796204,545.155762 438.607697,543.040588 439.386597,541.573303 
	C440.622589,539.244873 441.539032,537.164978 444.740265,536.417419 
	C448.081390,535.637085 449.373230,531.841370 451.353302,529.283569 
	C462.113373,515.384033 465.574463,500.110382 460.184113,482.926910 
	C457.083374,473.042419 455.969574,462.546997 450.278046,453.221039 
	C452.991913,452.415436 453.793365,453.771362 454.357117,455.052490 
	C455.691681,458.085052 457.652161,461.125641 457.927246,464.287598 
	C458.744476,473.681213 465.105103,479.411163 471.107849,485.275177 
	C473.356995,487.472321 473.386047,489.266541 472.860962,491.925720 
	C469.954834,490.827545 470.127655,487.561096 467.847046,486.006104 
z"/>
<path fill="#000000" opacity="1.000000" stroke="none" 
	d="
M355.415588,164.517883 
	C352.090210,159.513641 347.778717,155.934128 342.930359,151.996506 
	C359.171967,155.128723 385.281525,186.676102 389.036865,208.258743 
	C375.862335,206.198318 362.967651,203.621490 349.720123,203.799316 
	C354.002014,200.900116 358.928802,200.877182 363.629944,200.724472 
	C376.744812,200.298447 376.899048,200.149826 371.158997,188.408936 
	C366.982880,179.867020 361.938416,171.924805 355.415588,164.517883 
z"/>
<path fill="#000000" opacity="1.000000" stroke="none" 
	d="
M311.477478,204.558762 
	C303.692139,205.794006 296.360321,206.955521 288.982422,208.124329 
	C289.434143,192.511139 315.559265,156.946152 331.454559,153.368866 
	C331.445251,155.518906 329.697083,156.466827 328.443726,157.622314 
	C317.484283,167.726044 309.928619,180.138412 303.729004,193.521683 
	C302.017120,197.217178 302.221130,199.263260 306.879242,200.062744 
	C312.466095,201.021637 318.160736,200.183685 323.707764,201.549896 
	C325.456268,201.980545 327.325562,201.834183 329.986206,204.485031 
	C323.161896,204.485031 317.546448,204.485031 311.477478,204.558762 
z"/>
<path fill="#000000" opacity="1.000000" stroke="none" 
	d="
M239.467010,359.691040 
	C236.110794,348.396362 230.091263,338.741150 225.680573,328.369415 
	C223.018982,322.110687 219.842484,316.071930 216.946381,309.911285 
	C216.212234,308.349640 214.822998,306.609344 217.489151,305.259338 
	C220.194305,306.408325 221.056702,309.048798 222.228790,311.351105 
	C227.507507,321.719971 232.017349,332.563385 238.194107,342.359467 
	C241.661301,347.858337 243.618256,354.232849 247.378387,359.043488 
	C250.759979,363.369843 250.662704,367.673950 252.440491,373.046906 
	C248.276810,369.941803 248.020340,365.550659 244.906982,361.949402 
	C242.907867,375.169922 248.681702,390.002411 233.986374,398.910980 
	C229.800720,394.030914 226.213150,388.735046 223.790436,382.650513 
	C227.756927,383.997009 228.937408,387.833130 231.357849,390.493286 
	C233.622070,392.981812 235.286209,392.545959 237.041458,390.368683 
	C238.611664,388.420898 239.737381,386.320374 239.676651,383.581635 
	C239.503342,375.763733 239.567429,367.940582 239.467010,359.691040 
z"/>
<path fill="#000000" opacity="1.000000" stroke="none" 
	d="
M448.985718,388.867188 
	C446.329651,392.238708 444.857391,396.070709 441.758453,398.636292 
	C429.812592,390.310028 431.833954,377.544800 431.580505,365.737976 
	C428.252991,365.781708 428.978149,369.268463 426.349396,369.597076 
	C425.338501,367.019012 426.058655,363.881165 427.433105,362.462585 
	C430.553955,359.241547 431.910950,355.366577 432.674255,351.407959 
	C433.722198,345.973236 438.503052,343.416931 440.933594,339.048004 
	C450.073730,322.618652 458.273376,305.716766 466.836212,288.997223 
	C467.628601,287.450073 468.049316,285.524048 470.064575,284.737640 
	C470.994507,286.667694 469.632812,287.998627 468.969116,289.389099 
	C459.084076,310.098846 449.178589,330.799011 439.194031,351.460907 
	C437.270142,355.442169 436.192230,359.476990 436.318146,363.940369 
	C436.496643,370.266479 436.346405,376.601532 436.364136,382.932709 
	C436.368744,384.585083 436.304749,386.221710 437.211639,387.774963 
	C440.340332,393.133453 442.512756,393.270935 446.294098,388.421204 
	C448.141235,386.052216 449.242950,382.947510 452.743042,381.383453 
	C452.716644,384.724915 450.213562,386.290771 448.985718,388.867188 
z"/>
<path fill="#000000" opacity="1.000000" stroke="none" 
	d="
M210.211945,484.183533 
	C199.303925,500.937103 205.762070,516.009033 214.708374,530.638611 
	C220.371643,539.899475 221.676178,544.397400 219.270737,554.907471 
	C204.832565,532.351562 196.747910,509.889709 204.547836,483.745575 
	C205.800888,486.534973 207.490448,485.421051 209.420212,483.846161 
	C209.658691,483.695221 210.027573,484.020721 210.211945,484.183533 
z"/>
<path fill="#000000" opacity="1.000000" stroke="none" 
	d="
M256.242188,391.466064 
	C259.204285,384.632568 261.982208,378.134003 264.760101,371.635468 
	C265.201477,371.768402 265.642822,371.901337 266.084198,372.034271 
	C264.500793,383.604675 259.656036,394.744873 259.604095,406.408051 
	C259.551392,418.234680 263.983734,429.651367 265.383453,442.390503 
	C262.231262,439.930481 262.182098,437.006775 261.253326,434.580139 
	C258.232666,426.688110 255.474533,418.691467 252.284012,410.870239 
	C250.503799,406.506226 250.525681,402.655334 253.088196,398.628998 
	C254.404541,396.560730 255.088333,394.089874 256.242188,391.466064 
z"/>
<path fill="#000000" opacity="1.000000" stroke="none" 
	d="
M424.319885,411.980652 
	C420.607574,421.918213 416.994324,431.470520 413.381042,441.022858 
	C412.924530,440.899719 412.468018,440.776550 412.011505,440.653412 
	C412.818817,429.121704 417.476349,418.101410 417.540802,406.514679 
	C417.605713,394.846008 412.588776,383.963501 411.330780,372.412170 
	C413.188782,372.168823 413.298737,373.599670 413.704712,374.545807 
	C417.634338,383.704620 421.382935,392.943909 425.475586,402.028503 
	C427.098969,405.631958 425.212463,408.464447 424.319885,411.980652 
z"/>
<path fill="#000000" opacity="1.000000" stroke="none" 
	d="
M358.185425,218.603119 
	C380.639374,218.767563 400.510101,227.677124 409.776276,241.628571 
	C407.050598,244.674988 405.037720,246.373688 401.432037,241.785599 
	C391.108948,228.649933 377.162689,222.166443 360.503815,221.336868 
	C357.704773,221.197464 354.928589,220.567245 352.148712,220.121048 
	C351.878021,220.077606 351.655945,219.731400 351.326813,219.454651 
	C353.413940,218.049622 355.637360,218.848679 358.185425,218.603119 
z"/>
<path fill="#000000" opacity="1.000000" stroke="none" 
	d="
M276.213837,242.058258 
	C274.969879,243.792755 274.212952,245.785858 271.849915,245.103363 
	C269.996643,244.568100 268.478516,243.291138 268.076050,241.440659 
	C267.595215,239.229645 269.780151,238.575684 271.077728,237.361847 
	C279.824890,229.179199 289.789673,223.190796 301.430237,220.121948 
	C309.499847,217.994522 317.629181,218.557617 325.775940,219.276657 
	C320.136475,221.600082 314.087677,221.110229 308.323914,222.412735 
	C295.512756,225.307785 284.192902,230.606415 276.213837,242.058258 
z"/>
<path fill="#000000" opacity="1.000000" stroke="none" 
	d="
M493.838074,327.413574 
	C511.736908,322.762146 529.142334,324.988617 546.491638,328.216827 
	C553.808472,329.578278 553.767212,329.800140 555.358093,322.650970 
	C555.716248,323.090912 556.145935,323.376526 556.202393,323.722900 
	C558.354004,336.944275 557.688232,335.329559 546.819885,332.135681 
	C536.362122,329.062469 525.623291,328.091949 514.895508,327.550079 
	C504.184326,327.009094 493.776428,329.425354 483.841980,333.577637 
	C482.651489,334.075195 481.609589,335.048950 479.467651,334.299469 
	C483.417053,329.952850 488.819275,329.487549 493.838074,327.413574 
z"/>
<path fill="#000000" opacity="1.000000" stroke="none" 
	d="
M467.403107,523.479126 
	C470.882904,516.848938 472.027374,509.810333 474.634338,503.269409 
	C474.493439,520.325623 468.085419,535.288147 458.876923,549.436035 
	C457.466980,545.033875 456.811035,540.797729 459.515411,536.578308 
	C462.197754,532.393250 464.673706,528.075928 467.403107,523.479126 
z"/>
<path fill="#000000" opacity="1.000000" stroke="none" 
	d="
M211.310394,467.057800 
	C209.731064,470.652252 208.248276,473.875793 206.765488,477.099335 
	C206.151459,476.924164 205.537430,476.748993 204.923401,476.573853 
	C210.451340,462.554352 213.381470,447.991455 215.431488,433.042328 
	C216.788651,438.724548 218.482880,444.058594 224.343079,448.909485 
	C217.967758,447.526245 217.083099,450.347565 216.190857,454.186066 
	C215.190170,458.491058 213.050858,462.531403 211.310394,467.057800 
z"/>
<path fill="#000000" opacity="1.000000" stroke="none" 
	d="
M314.231110,276.849731 
	C300.307465,268.117218 286.701050,259.563629 273.094635,251.010071 
	C273.442871,250.452072 273.791107,249.894073 274.139343,249.336075 
	C292.559479,260.791168 310.979614,272.246277 329.399750,283.701385 
	C329.115540,284.218018 328.831299,284.734619 328.547089,285.251251 
	C323.880829,282.510376 319.214569,279.769531 314.231110,276.849731 
z"/>
<path fill="#000000" opacity="1.000000" stroke="none" 
	d="
M555.093506,296.375458 
	C557.011475,300.409332 555.565063,301.807068 551.818787,300.796356 
	C542.361084,298.244843 532.668701,296.950226 523.067566,295.170502 
	C516.990967,294.044128 510.820953,295.779419 504.567444,294.889191 
	C504.834930,294.457275 504.972046,294.046356 505.105377,294.047577 
	C519.017151,294.176300 533.019104,292.886047 546.749573,296.042450 
	C549.609009,296.699799 552.215881,296.192902 555.093506,296.375458 
z"/>
<path fill="#000000" opacity="1.000000" stroke="none" 
	d="
M458.343414,447.432983 
	C457.494965,447.755310 456.924652,448.148895 456.298462,448.284515 
	C455.885864,448.373901 455.392853,448.091888 454.635498,447.900116 
	C457.139282,444.483551 457.843475,440.188263 461.942352,437.377258 
	C463.519348,448.109070 466.811523,458.326935 469.601532,469.461517 
	C465.525085,466.165588 462.446045,459.322083 460.669281,450.571869 
	C460.392090,449.206818 461.019562,447.330872 458.343414,447.432983 
z"/>
<path fill="#000000" opacity="1.000000" stroke="none" 
	d="
M493.277039,177.784515 
	C490.314697,175.578552 487.433136,174.152328 482.893677,175.337372 
	C485.509827,172.077133 487.568604,172.533157 489.831238,173.328125 
	C495.122406,175.187149 497.456635,179.552216 499.053894,184.357910 
	C502.742340,195.455093 498.267975,205.206131 494.272919,216.053452 
	C491.618652,212.484955 493.352783,210.412598 494.290680,208.306320 
	C498.841278,198.086945 499.848389,187.969101 493.277039,177.784515 
z"/>
<path fill="#000000" opacity="1.000000" stroke="none" 
	d="
M363.934143,539.130005 
	C364.655670,539.174988 365.353119,539.601013 366.051392,540.025696 
	C369.032806,541.838684 372.409912,542.716675 375.360321,540.818604 
	C378.368500,538.883423 377.837402,535.399170 377.310669,532.245850 
	C377.122711,531.120667 377.051117,529.976074 376.965759,528.425171 
	C380.581940,532.355408 381.947540,537.546082 382.844757,542.993652 
	C377.354218,541.640259 373.954742,545.694031 369.113464,547.321472 
	C367.379242,545.294067 364.536804,543.200439 363.934143,539.130005 
z"/>
<path fill="#000000" opacity="1.000000" stroke="none" 
	d="
M536.318115,263.796021 
	C527.315308,262.061859 518.894958,259.154999 509.949677,259.655701 
	C522.212708,257.975739 534.001160,260.372742 545.639709,263.895813 
	C548.042603,264.623199 550.335938,265.771301 552.458557,263.677155 
	C554.652893,265.236176 554.424683,267.188507 554.075256,269.884888 
	C548.114014,267.844421 542.406982,265.890991 536.318115,263.796021 
z"/>
<path fill="#000000" opacity="1.000000" stroke="none" 
	d="
M455.002350,242.253204 
	C442.089630,242.267105 429.676575,242.267105 416.035004,242.267105 
	C418.927551,240.047073 420.332489,237.740723 423.262634,239.971359 
	C423.971863,240.511246 425.178314,240.577362 426.151978,240.563934 
	C444.275696,240.314163 462.407776,241.550369 481.421448,240.208710 
	C479.966888,242.405319 478.536377,243.161957 476.436615,242.860825 
	C469.481903,241.863495 462.494537,241.964310 455.002350,242.253204 
z"/>
<path fill="#000000" opacity="1.000000" stroke="none" 
	d="
M468.481964,217.708710 
	C470.643280,217.528061 472.095154,215.446320 474.450592,215.627213 
	C477.810364,215.885239 482.016022,214.849899 480.971832,220.696854 
	C480.646149,222.520554 483.222717,222.574356 483.141541,224.593384 
	C480.760803,226.152740 478.647003,224.958939 476.633972,223.602890 
	C473.847870,221.726089 471.292206,219.446442 467.896057,218.477890 
	C468.156250,217.931656 468.319092,217.820175 468.481964,217.708710 
z"/>
<path fill="#000000" opacity="1.000000" stroke="none" 
	d="
M426.464417,571.605896 
	C424.104187,579.972595 426.378510,588.322449 424.325195,596.386414 
	C424.144135,589.102295 422.472382,582.055603 421.728333,574.896118 
	C421.370514,571.453186 424.323090,569.863220 426.122894,567.572449 
	C427.944885,568.830322 426.690735,570.057678 426.464417,571.605896 
z"/>
<path fill="#000000" opacity="1.000000" stroke="none" 
	d="
M460.709961,409.138458 
	C460.444916,405.816071 456.842773,403.597656 458.622345,400.019043 
	C465.423920,406.374176 467.494110,414.497589 463.383850,419.534607 
	C462.331604,416.081909 462.509735,412.521149 460.709961,409.138458 
z"/>
<path fill="#000000" opacity="1.000000" stroke="none" 
	d="
M472.308044,196.907196 
	C473.948456,197.919785 473.156311,198.680435 472.322357,199.225647 
	C469.157379,201.294678 466.123932,203.508240 463.991974,206.927109 
	C461.670258,204.615601 461.400330,202.203369 460.994720,199.364777 
	C464.694031,198.518539 468.322815,197.688416 472.308044,196.907196 
z"/>
<path fill="#000000" opacity="1.000000" stroke="none" 
	d="
M226.885803,167.908173 
	C223.286621,159.557190 226.681900,151.273392 226.656906,143.005554 
	C226.654053,142.058182 226.468979,140.977127 228.113312,140.024338 
	C228.348984,149.405212 228.903503,158.453918 227.539932,167.862244 
	C227.271957,168.205826 227.014618,168.007278 226.885803,167.908173 
z"/>
<path fill="#000000" opacity="1.000000" stroke="none" 
	d="
M291.748108,461.258759 
	C294.312836,463.179932 296.256775,470.091614 295.834320,474.943176 
	C290.378235,471.750793 289.213165,467.199646 291.748108,461.258759 
z"/>
<path fill="#000000" opacity="1.000000" stroke="none" 
	d="
M467.748474,218.209503 
	C466.428345,215.870926 464.962311,213.485886 464.938568,210.354019 
	C468.274933,209.682800 471.335785,207.764938 475.118225,209.617798 
	C474.037079,213.252487 468.810638,213.082581 468.541565,217.397598 
	C468.319092,217.820175 468.156250,217.931656 467.748474,218.209503 
z"/>
<path fill="#000000" opacity="1.000000" stroke="none" 
	d="
M259.491577,592.497131 
	C259.062164,594.805664 259.791382,596.845215 258.809692,598.752014 
	C255.078720,592.755554 256.839020,584.281128 263.427277,580.640503 
	C261.961334,584.981262 260.758667,588.542542 259.491577,592.497131 
z"/>
<path fill="#000000" opacity="1.000000" stroke="none" 
	d="
M506.823853,248.625641 
	C504.067047,249.255630 501.724304,249.823105 498.981812,250.487442 
	C502.003113,246.408142 504.320587,245.877380 519.049927,245.523529 
	C517.012512,248.106262 517.012512,248.106262 506.823853,248.625641 
z"/>
<path fill="#000000" opacity="1.000000" stroke="none" 
	d="
M448.703918,165.928589 
	C448.666565,157.498062 448.666565,149.452332 448.666565,140.125031 
	C451.412994,146.125580 451.948792,154.929169 450.710510,159.933151 
	C450.204224,161.979065 450.544769,164.221069 450.201019,166.325012 
	C449.932709,167.967346 449.225128,167.817795 448.703918,165.928589 
z"/>
<path fill="#000000" opacity="1.000000" stroke="none" 
	d="
M484.199097,378.221863 
	C484.060120,382.871277 487.170135,386.076324 488.848083,391.041504 
	C484.201752,388.112457 481.555206,384.781952 478.288666,380.754456 
	C481.417633,381.087799 482.710785,379.669281 483.363586,377.508667 
	C483.372986,377.477570 483.676422,377.483276 483.797241,377.551819 
	C483.930908,377.627686 484.012238,377.795746 484.199097,378.221863 
z"/>
<path fill="#000000" opacity="1.000000" stroke="none" 
	d="
M382.995911,468.049591 
	C383.748260,467.252686 384.515930,466.431091 386.026154,464.814758 
	C386.381531,471.410950 383.331024,475.895538 381.719147,481.012848 
	C379.412903,479.140259 379.611115,479.230652 381.316223,475.491394 
	C382.250732,473.442139 382.383270,471.027130 382.962219,468.378052 
	C383.047058,467.979065 383.011230,468.024872 382.995911,468.049591 
z"/>
<path fill="#000000" opacity="1.000000" stroke="none" 
	d="
M549.158020,338.234467 
	C550.166077,343.339203 552.456665,347.933380 550.620728,354.306366 
	C548.208008,348.363983 547.132629,343.404846 546.494141,338.419403 
	C546.227539,336.337524 547.867188,336.774536 549.158020,338.234467 
z"/>
<path fill="#000000" opacity="1.000000" stroke="none" 
	d="
M260.870728,240.867950 
	C262.164764,242.037643 263.908325,242.268509 264.373169,244.464005 
	C257.913300,242.791794 252.887527,239.492996 247.619034,233.969849 
	C253.492432,235.168243 256.513977,238.937073 260.870728,240.867950 
z"/>
<path fill="#000000" opacity="1.000000" stroke="none" 
	d="
M539.544312,363.347595 
	C536.621704,354.490997 537.130920,345.607391 539.503967,336.691010 
	C539.254883,345.087006 538.836060,353.478271 540.219971,362.383118 
	C539.858032,363.105194 539.701172,363.226410 539.544312,363.347595 
z"/>
<path fill="#000000" opacity="1.000000" stroke="none" 
	d="
M490.441345,360.657898 
	C492.225037,364.648438 491.912598,369.020203 492.751709,373.173889 
	C493.614685,377.445801 494.971497,381.617920 495.509705,385.991730 
	C490.482574,378.870728 490.416809,370.430939 489.817871,361.593445 
	C490.161316,360.885681 490.301331,360.771790 490.441345,360.657898 
z"/>
<path fill="#000000" opacity="1.000000" stroke="none" 
	d="
M449.764587,512.830933 
	C449.203217,514.030090 449.609467,515.233887 447.696198,516.323486 
	C448.983948,509.349457 448.271576,502.959503 447.256622,496.552246 
	C449.945953,501.564972 451.056610,506.827118 449.764587,512.830933 
z"/>
<path fill="#000000" opacity="1.000000" stroke="none" 
	d="
M418.318329,589.617798 
	C417.979065,586.382385 415.964508,584.305054 414.484039,581.830078 
	C419.014038,581.558228 419.014038,581.558228 420.840485,595.287231 
	C418.796814,593.809143 418.796814,593.809143 418.318329,589.617798 
z"/>
<path fill="#000000" opacity="1.000000" stroke="none" 
	d="
M493.746490,286.290192 
	C492.128357,286.064178 490.880646,287.331116 488.950470,285.751312 
	C494.014526,284.302063 498.449799,283.043793 504.075928,284.333679 
	C500.589417,287.498077 497.156342,285.702026 493.746490,286.290192 
z"/>
<path fill="#000000" opacity="1.000000" stroke="none" 
	d="
M494.984924,321.428589 
	C496.760193,321.102295 498.122742,320.227112 500.611511,321.315460 
	C494.510468,324.153503 488.573883,322.233521 483.208832,323.839905 
	C486.461395,320.028168 490.970306,323.122467 494.984924,321.428589 
z"/>
<path fill="#000000" opacity="1.000000" stroke="none" 
	d="
M504.292786,400.638489 
	C509.737885,402.445282 512.922241,406.780640 516.453430,410.728088 
	C516.122986,411.129517 515.792480,411.530914 515.462036,411.932312 
	C511.674988,408.597015 507.887970,405.261688 504.050995,401.471252 
	C504.001068,401.016144 504.292786,400.638489 504.292786,400.638489 
z"/>
<path fill="#000000" opacity="1.000000" stroke="none" 
	d="
M489.811127,361.170227 
	C488.367981,356.954559 483.437469,354.482025 483.327728,348.946777 
	C487.477509,351.790222 490.262177,354.956085 490.414581,360.273926 
	C490.301331,360.771790 490.161316,360.885681 489.811127,361.170227 
z"/>
<path fill="#000000" opacity="1.000000" stroke="none" 
	d="
M540.251221,362.803467 
	C542.077271,367.744141 543.827393,372.866608 540.264832,378.879150 
	C539.161560,373.432007 539.859985,368.805359 539.568115,363.790649 
	C539.701172,363.226410 539.858032,363.105194 540.251221,362.803467 
z"/>
<path fill="#000000" opacity="1.000000" stroke="none" 
	d="
M503.855316,401.205017 
	C497.797424,404.574524 497.754700,397.912323 494.728973,396.212372 
	C498.385895,396.190857 500.841156,398.735992 504.048828,400.397705 
	C504.292786,400.638489 504.001068,401.016144 503.855316,401.205017 
z"/>
<path fill="#000000" opacity="1.000000" stroke="none" 
	d="
M318.328064,524.982910 
	C318.905670,520.565613 318.593506,516.520203 318.589935,512.478088 
	C321.013794,517.861816 321.062134,523.221802 318.813507,528.977966 
	C317.372345,527.550781 317.903015,526.450745 318.328064,524.982910 
z"/>
<path fill="#000000" opacity="1.000000" stroke="none" 
	d="
M414.972046,273.932922 
	C418.121582,270.261017 422.593964,270.688782 426.807556,270.167297 
	C423.254822,272.494934 419.409393,273.886383 414.972046,273.932922 
z"/>
<path fill="#000000" opacity="1.000000" stroke="none" 
	d="
M228.873566,510.202271 
	C228.874161,511.372498 228.874161,512.182251 228.874161,512.992004 
	C228.485168,508.105804 226.682648,503.122864 229.736771,497.445221 
	C230.591797,502.288788 228.322495,505.991180 228.873566,510.202271 
z"/>
<path fill="#000000" opacity="1.000000" stroke="none" 
	d="
M195.236572,493.192627 
	C195.039154,495.036194 194.890411,496.497864 194.741669,497.959564 
	C194.160767,494.423462 193.094223,490.900177 194.402023,486.683929 
	C197.265213,488.929779 195.147186,490.996643 195.236572,493.192627 
z"/>
<path fill="#000000" opacity="1.000000" stroke="none" 
	d="
M489.831726,219.434296 
	C490.257446,218.542419 490.540253,217.936371 490.823059,217.330307 
	C491.325562,217.669891 491.828064,218.009460 492.330566,218.349045 
	C490.889618,221.161957 491.043579,224.666672 487.572113,227.105194 
	C486.423523,223.787918 488.840912,221.978699 489.831726,219.434296 
z"/>
<path fill="#000000" opacity="1.000000" stroke="none" 
	d="
M334.851135,501.998901 
	C335.349731,503.183746 335.669434,504.091553 335.989136,504.999359 
	C335.638184,505.272339 335.287262,505.545288 334.936310,505.818237 
	C331.647827,501.034149 326.653137,497.809723 322.899628,491.780823 
	C330.156158,492.617493 331.895355,497.755402 334.851135,501.998901 
z"/>
<path fill="#000000" opacity="1.000000" stroke="none" 
	d="
M315.137299,481.775696 
	C317.136292,481.178955 316.911377,478.194366 319.570251,478.515442 
	C320.148590,481.726318 317.043365,483.341278 316.672943,485.962738 
	C314.285461,485.796997 314.897400,484.138153 314.560547,482.697327 
	C314.664154,482.239960 314.799347,482.107330 315.137299,481.775696 
z"/>
</svg>